<mxfile host="app.diagrams.net" modified="2023-11-26T21:01:14.989Z" agent="Mozilla/5.0 (Macintosh; Intel Mac OS X 10_15_7) AppleWebKit/537.36 (KHTML, like Gecko) Chrome/119.0.0.0 Safari/537.36" version="22.1.4" etag="8B4Wfil2YtUNtLQK9AXl" type="github">
  <diagram name="Page-1" id="m2xd8r58hCAGVmlAXhh_">
    <mxGraphModel>
      <root>
        <mxCell id="0" />
        <mxCell id="1" parent="0" />
      </root>
    </mxGraphModel>
  </diagram>
</mxfile>
